<svg xmlns="http://www.w3.org/2000/svg" viewBox="0 0 800 600"><g style="isolation:isolate"><path fill="#f0f3f7" d="M656.14,173.5h-21a68.08,68.08,0,0,0-1-7.62l20.26-5.43a4.87,4.87,0,0,0,3.45-6l-.1-.4a4.89,4.89,0,0,0-6-3.45l-20.28,5.44a67,67,0,0,0-3-7.09l18.2-10.51a4.87,4.87,0,0,0,1.78-6.66l-.2-.36a4.87,4.87,0,0,0-6.66-1.78l-18.15,10.48a67.53,67.53,0,0,0-4.72-6.07l14.85-14.85a4.87,4.87,0,0,0,0-6.9l-.29-.29a4.88,4.88,0,0,0-6.89,0l-14.85,14.85a69.3,69.3,0,0,0-6.07-4.71L616,104a4.87,4.87,0,0,0-1.78-6.66l-.36-.21A4.89,4.89,0,0,0,607.23,99l-10.5,18.2a67.84,67.84,0,0,0-7.09-3l5.43-20.29a4.87,4.87,0,0,0-3.45-6l-.39-.11a4.88,4.88,0,0,0-6,3.45l-5.43,20.27a68.38,68.38,0,0,0-7.62-1v-21a4.88,4.88,0,0,0-4.88-4.87h-.41a4.87,4.87,0,0,0-4.87,4.87v21a68.26,68.26,0,0,0-7.63,1L549,91.28a4.88,4.88,0,0,0-6-3.45l-.39.11a4.88,4.88,0,0,0-3.45,6l5.44,20.29a67.12,67.12,0,0,0-7.1,3L527,99a4.89,4.89,0,0,0-6.66-1.79l-.36.21a4.87,4.87,0,0,0-1.78,6.66l10.48,18.15a68,68,0,0,0-6.08,4.71L507.77,112a4.88,4.88,0,0,0-6.89,0l-.29.29a4.87,4.87,0,0,0,0,6.9l14.85,14.85a69.41,69.41,0,0,0-4.72,6.07l-18.15-10.48a4.87,4.87,0,0,0-6.66,1.78l-.2.36a4.87,4.87,0,0,0,1.78,6.66L505.69,149a66.89,66.89,0,0,0-2.94,7.09l-20.29-5.44a4.88,4.88,0,0,0-6,3.45l-.11.4a4.88,4.88,0,0,0,3.45,6l20.26,5.43a68.08,68.08,0,0,0-1,7.62h-21a4.88,4.88,0,0,0-4.88,4.87v.41a4.88,4.88,0,0,0,4.88,4.88h21a68.08,68.08,0,0,0,1,7.62l-20.26,5.43a4.88,4.88,0,0,0-3.45,6l.11.4a4.88,4.88,0,0,0,6,3.45l20.29-5.44a67.78,67.78,0,0,0,2.94,7.09l-18.2,10.51a4.87,4.87,0,0,0-1.78,6.66l.2.35a4.89,4.89,0,0,0,6.66,1.79L510.72,217a69.41,69.41,0,0,0,4.72,6.07l-14.85,14.85a4.87,4.87,0,0,0,0,6.9l.29.29a4.88,4.88,0,0,0,6.89,0l14.85-14.85A68,68,0,0,0,528.7,235l-10.48,18.15a4.87,4.87,0,0,0,1.78,6.66l.36.2a4.87,4.87,0,0,0,6.66-1.78l10.5-18.2a67.12,67.12,0,0,0,7.1,3l-5.44,20.29a4.88,4.88,0,0,0,3.45,6l.39.11a4.88,4.88,0,0,0,6-3.45l5.43-20.27a68.26,68.26,0,0,0,7.63,1v21a4.87,4.87,0,0,0,4.87,4.87h.41a4.88,4.88,0,0,0,4.88-4.87v-21a68.38,68.38,0,0,0,7.62-1l5.43,20.27a4.88,4.88,0,0,0,6,3.45l.39-.11a4.87,4.87,0,0,0,3.45-6L589.64,243a67.84,67.84,0,0,0,7.09-3l10.5,18.2a4.87,4.87,0,0,0,6.66,1.78l.36-.2a4.87,4.87,0,0,0,1.78-6.66L605.56,235a69.3,69.3,0,0,0,6.07-4.71l14.85,14.85a4.88,4.88,0,0,0,6.89,0l.29-.29a4.87,4.87,0,0,0,0-6.9l-14.85-14.85a67.53,67.53,0,0,0,4.72-6.07l18.15,10.48a4.89,4.89,0,0,0,6.66-1.79l.2-.35a4.87,4.87,0,0,0-1.78-6.66l-18.2-10.51a67.84,67.84,0,0,0,3-7.09l20.28,5.44a4.89,4.89,0,0,0,6-3.45l.1-.4a4.87,4.87,0,0,0-3.45-6l-20.26-5.43a68.08,68.08,0,0,0,1-7.62h21a4.87,4.87,0,0,0,4.88-4.88v-.41A4.87,4.87,0,0,0,656.14,173.5Zm-32.43,5.08a56.18,56.18,0,0,1-5.28,23.75l-13.33-7.69a41.21,41.21,0,0,0-32.89-56.94V122.25A56.57,56.57,0,0,1,623.71,178.58Zm-40.91,0a15.68,15.68,0,1,1-15.67-15.67A15.68,15.68,0,0,1,582.8,178.58Zm-20.75-56.33V137.7a41.21,41.21,0,0,0-32.9,56.94l-13.33,7.69a56.46,56.46,0,0,1,46.23-80.08Zm5.08,112.91a56.49,56.49,0,0,1-46.24-24l13.39-7.73a41.11,41.11,0,0,0,65.69,0l13.39,7.73A56.48,56.48,0,0,1,567.13,235.16Z"/><path fill="#f0f3f7" d="M228.74,82.82c4.18-.85,9.31,1.1,13.08,3.09,2.91-2.38,15.72-11.58,31.53-11.58,6.53,0,16.57,2.8,20.19,8.22-1.84-3.57,1.06-8.18,4.9-9.34s8,.24,11.48,2.25a34.57,34.57,0,0,1,11.23,10.39,8.66,8.66,0,0,1,10-2.51c5.23,2.31,5.73,8.13,3.67,12.77-.15.33-.31.64-.47.94H198.85C211.11,97.05,218.51,84.92,228.74,82.82Z"/><path fill="#f0f3f7" d="M80.59,170.67c2.09-.43,4.65.55,6.54,1.54,1.45-1.19,7.86-5.79,15.76-5.79,3.26,0,8.29,1.4,10.1,4.11-.92-1.78.53-4.09,2.45-4.67a7.45,7.45,0,0,1,5.74,1.13,17.2,17.2,0,0,1,5.61,5.19,4.33,4.33,0,0,1,5-1.25c2.62,1.15,2.87,4.06,1.83,6.38a5.14,5.14,0,0,1-.23.47H65.64C71.77,177.78,75.47,171.72,80.59,170.67Z"/><path fill="#f0f3f7" d="M152.15,183.9c2.15-.6,4.83,1.13,8.93-1.27,2.18-1.28,3.17-4.28,5.59-5,2-.62,4.14.61,5.82,1.91s3.47,2.79,5.6,2.78c3.2,0,5.87-3.46,9-2.81,3.94.82,4.29,7,8,8.61a12.19,12.19,0,0,0,3.67.57c2.22.22,4.82,2.41,3.14,4.43H132.77C141.37,193.11,144.6,186,152.15,183.9Z"/><path fill="#f0f3f7" d="M742.08,115.77h-9.84a32.24,32.24,0,0,0-.45-3.57l9.48-2.54a2.27,2.27,0,0,0,1.61-2.79l0-.19a2.27,2.27,0,0,0-2.79-1.61l-9.5,2.54a30.14,30.14,0,0,0-1.38-3.32l8.52-4.91a2.29,2.29,0,0,0,.84-3.12l-.1-.17a2.28,2.28,0,0,0-3.12-.83l-8.49,4.9a31.78,31.78,0,0,0-2.21-2.84l6.95-6.95a2.29,2.29,0,0,0,0-3.23l-.13-.13a2.27,2.27,0,0,0-3.23,0l-7,6.95a31.78,31.78,0,0,0-2.84-2.21l4.9-8.49a2.28,2.28,0,0,0-.83-3.12l-.17-.1a2.29,2.29,0,0,0-3.12.84l-4.91,8.51A33.1,33.1,0,0,0,711,88l2.54-9.5a2.29,2.29,0,0,0-1.61-2.8l-.19,0a2.28,2.28,0,0,0-2.79,1.62l-2.54,9.48a32.24,32.24,0,0,0-3.57-.45V76.48a2.28,2.28,0,0,0-2.28-2.28h-.2A2.28,2.28,0,0,0,698,76.48v9.84a31.76,31.76,0,0,0-3.56.45l-2.55-9.48a2.28,2.28,0,0,0-2.79-1.62l-.19,0a2.29,2.29,0,0,0-1.61,2.8l2.54,9.5a32,32,0,0,0-3.31,1.37l-4.92-8.51a2.29,2.29,0,0,0-3.12-.84l-.17.1a2.28,2.28,0,0,0-.83,3.12l4.9,8.49A31.78,31.78,0,0,0,679.58,94l-7-6.95a2.27,2.27,0,0,0-3.23,0l-.13.13a2.29,2.29,0,0,0,0,3.23l7,6.95a33.73,33.73,0,0,0-2.21,2.84l-8.49-4.9a2.29,2.29,0,0,0-3.12.83l-.1.17a2.29,2.29,0,0,0,.84,3.12l8.52,4.91a32.22,32.22,0,0,0-1.38,3.32l-9.5-2.54a2.27,2.27,0,0,0-2.79,1.61l0,.19a2.27,2.27,0,0,0,1.61,2.79L669,112.2a32.24,32.24,0,0,0-.46,3.57h-9.83a2.29,2.29,0,0,0-2.29,2.28v.19a2.29,2.29,0,0,0,2.29,2.29h9.83a31.76,31.76,0,0,0,.46,3.56l-9.49,2.55a2.27,2.27,0,0,0-1.61,2.79l0,.19a2.27,2.27,0,0,0,2.79,1.61l9.5-2.55a31.32,31.32,0,0,0,1.38,3.32l-8.52,4.92a2.29,2.29,0,0,0-.84,3.12l.1.17a2.29,2.29,0,0,0,3.12.83l8.49-4.9a33.73,33.73,0,0,0,2.21,2.84l-7,7a2.29,2.29,0,0,0,0,3.23l.13.13a2.29,2.29,0,0,0,3.23,0l7-6.95a33.73,33.73,0,0,0,2.84,2.21l-4.9,8.49a2.29,2.29,0,0,0,.83,3.12l.17.1a2.29,2.29,0,0,0,3.12-.84l4.92-8.52a32.05,32.05,0,0,0,3.31,1.38l-2.54,9.5a2.27,2.27,0,0,0,1.61,2.79l.19.05a2.27,2.27,0,0,0,2.79-1.61l2.55-9.49A31.76,31.76,0,0,0,698,150v9.83a2.29,2.29,0,0,0,2.28,2.29h.2a2.29,2.29,0,0,0,2.28-2.29V150a32.24,32.24,0,0,0,3.57-.46L708.9,159a2.27,2.27,0,0,0,2.79,1.61l.19-.05a2.27,2.27,0,0,0,1.61-2.79l-2.54-9.5a33.17,33.17,0,0,0,3.32-1.38l4.91,8.52a2.29,2.29,0,0,0,3.12.84l.17-.1a2.29,2.29,0,0,0,.83-3.12l-4.9-8.49a33.73,33.73,0,0,0,2.84-2.21l7,6.95a2.29,2.29,0,0,0,3.23,0l.13-.13a2.29,2.29,0,0,0,0-3.23l-6.95-7a31.78,31.78,0,0,0,2.21-2.84l8.49,4.9a2.28,2.28,0,0,0,3.12-.83l.1-.17a2.29,2.29,0,0,0-.84-3.12L729.16,132a29.36,29.36,0,0,0,1.38-3.32l9.5,2.55a2.27,2.27,0,0,0,2.79-1.61l0-.19a2.27,2.27,0,0,0-1.61-2.79l-9.48-2.55a31.76,31.76,0,0,0,.45-3.56h9.84a2.28,2.28,0,0,0,2.28-2.29v-.19A2.28,2.28,0,0,0,742.08,115.77Zm-15.18,2.38a26.36,26.36,0,0,1-2.48,11.12l-6.23-3.6A19.31,19.31,0,0,0,702.79,99V91.78A26.49,26.49,0,0,1,726.9,118.15Zm-19.15,0a7.34,7.34,0,1,1-7.34-7.34A7.34,7.34,0,0,1,707.75,118.15ZM698,91.78V99a19.29,19.29,0,0,0-15.39,26.65l-6.24,3.6A26.44,26.44,0,0,1,698,91.78Zm2.38,52.85a26.45,26.45,0,0,1-21.64-11.24l6.27-3.62a19.25,19.25,0,0,0,30.75,0l6.26,3.62A26.44,26.44,0,0,1,700.41,144.63Z"/><g><path fill="#7ce2de" d="M541,395.48c7.12-1.49,17.57,8.31,21.29,2.25,2.48-4-18.38-18.35-21.61-36.08-.85-4.66-1.82-10.87,1.87-13.83s9-2.34,12.88.4c19,13.43,53.66,77.24,57.91,87.25,1.37,3.23,2.76,6.67,2.28,10.14-.63,4.53-4.53,8.16-8.94,9.35s-9.18.23-13.31-1.71-7.75-4.82-11.32-7.67C582,445.58,516,400.7,541,395.48Z"/><path fill="#7ce2de" d="M732,361.65c.85-4.66,1.81-10.87-1.88-13.83s-9-2.34-12.88.4c-19,13.43-53.66,77.24-57.91,87.25-1.36,3.23-2.76,6.67-2.28,10.14.63,4.53,4.53,8.16,8.94,9.35s9.18.23,13.31-1.71S728.74,379.38,732,361.65Z"/><path fill="#7ce2de" d="M659.72,467.9c-1-7.53-2.22-15.19-1-22.54,1.7-10.23,8.11-19.56,6.65-30-1.15-8.26-7-15.26-9.72-23.23-3.6-10.7-1.19-22,.1-33a160.13,160.13,0,0,0-3.89-57.82c-1.82-7.2-6.21-15.91-13.38-15.6-6.32.27-9.51,7.85-9,14.32s3.21,12.82,3,19.27c-.3,8.92-6.1,16.19-11.19,23.19s-9.91,15.43-7.91,24.27c2.36,10.48,13.6,17.81,15.13,28.4,1.72,11.85-9.08,20.33-16,29.5-6.18,8.24,3.34,21.55,3.21,32.2-.08,5.8-5.27,12.31-3.41,17.92,4.54,13.67,11.4,28.19,26.46,30.52C658.6,508.37,661.56,482.07,659.72,467.9Z"/><path fill="#00ad66" d="M641.83,501.19a.5.5,0,0,1-.48-.38c-3.66-14.43-2.06-35.28-.65-53.68.67-8.75,1.3-17,1.31-23.77V415.7c.05-39.39.1-80.11-2.23-118.51a.5.5,0,0,1,.47-.53.52.52,0,0,1,.53.47c2.33,38.43,2.28,79.17,2.23,118.57v7.66c0,6.8-.64,15.08-1.31,23.85-1.41,18.32-3,39.08.62,53.35a.5.5,0,0,1-.36.61Z"/><path fill="#7ce2de" d="M676.32,502c2.78-5.22-1.25-12.51-.35-18.24,1.64-10.52,13.27-22.05,8.55-31.21-5.26-10.19-14.48-20.36-10.8-31.75,3.28-10.19,15.59-15.53,19.68-25.47,3.45-8.38.11-17.51-3.74-25.26s-8.34-15.88-7.14-24.73c.87-6.39,4.63-12.2,6.19-18.49s-.33-14.31-6.51-15.64c-7-1.5-12.81,6.35-15.81,13.14a160.3,160.3,0,0,0-13.51,56.36c-.57,11-.09,22.58-5.43,32.52-4,7.41-11,13.33-13.48,21.28-3.19,10.06,1.57,20.33,1.53,30.69,0,7.46-2.55,14.8-4.77,22.06-2.92,9.55-4.52,25.33,1.63,34.07h29.7C668,516.4,672.54,509.15,676.32,502Z"/><path fill="#00ad66" d="M645.48,514.6a.51.51,0,0,1-.5-.55c1.36-15.94,5-31.46,8.27-45.15,1.86-7.86,3.62-15.29,4.75-22,2.58-15.26,4.24-30.72,5.85-45.66,2.92-27.15,5.67-52.8,13.46-78a.5.5,0,0,1,.62-.33.51.51,0,0,1,.33.63c-7.75,25.15-10.5,50.74-13.42,77.84-1.61,15-3.27,30.43-5.86,45.72-1.13,6.71-2.89,14.16-4.76,22-3.23,13.66-6.89,29.13-8.25,45A.5.5,0,0,1,645.48,514.6Z"/><path fill="#7ce2de" d="M727.2,520.22c4.59-4.84-.36-13.11-6.76-13.76s11.38-.45,26.06-4.25c5.11-1.32,11.46-4.1,11.51-9.3s-6.28-7.36-11.44-7.71a87.8,87.8,0,0,0-32.43,4.05c-4.64,1.49-4.67,1.16-.23-1.05l30.23-15c5.05-2.51,11.09-7,9.5-12.2-1.37-4.48-7.42-5.29-12.17-4.42-48.38,8.88-82.09,44.31-94.07,64.82h78.41A8,8,0,0,0,727.2,520.22Z"/><path fill="#7ce2de" d="M552.5,476.86c-3.18-.6-7.4,0-8.73,3-1.52,3.55,2.24,6.66,5.5,8.38l19.48,10.32c2.86,1.52,2.82,1.74-.25.73a57.58,57.58,0,0,0-21.92-2.79c-3.58.24-8.11,1.73-8.51,5.3s3.72,5.47,7.12,6.38c9.76,2.61,22,2.47,17.53,2.92s-8.55,6.12-5.81,9.45a5.34,5.34,0,0,0,.86.79h53.85C605.13,507.29,585,483,552.5,476.86Z"/><path fill="#9bf2ef" d="M672.64,514.83c3.44-7.08,3.05-15.48,7.14-22.23,6.41-10.56,20.83-12.91,29.8-21.47s11-21.86,11.94-33.95,1.57-25.06,9-35.05c2.54-3.41,5.75-6.29,8.29-9.7s4.43-7.65,3.64-11.65c-1.39-7-10.76-9.66-17.57-6.63s-11.31,9.75-14.73,16.38-6.3,13.73-11.54,19.11c-7.34,7.52-18.34,10.65-25.34,18.5-11.71,13.11-8,34.12-18.76,48-7.11,9.24-28.57,33.59-29.74,45.2h43.38A24.34,24.34,0,0,0,672.64,514.83Z"/><path fill="#00ad66" d="M647.4,519.08a.54.54,0,0,1-.22-.05.5.5,0,0,1-.23-.67c8.52-17.26,19.51-33.83,30.14-49.86,4-6,8.11-12.24,12-18.38,5.84-9.15,11.36-18.5,16.7-27.54,7.9-13.38,15.36-26,23.73-38a.49.49,0,0,1,.69-.13.5.5,0,0,1,.13.7c-8.35,12-15.8,24.6-23.69,38-5.35,9.05-10.87,18.41-16.72,27.57-3.92,6.15-8.05,12.37-12,18.39-10.61,16-21.58,32.55-30.08,49.75A.48.48,0,0,1,647.4,519.08Z"/><path fill="#9bf2ef" d="M636.07,503.42c1-13.74-8.26-26.95-21.35-30.39-5.39-1.41-11.53-1.45-15.78-4.92-9.92-8.1-1.57-26.71-9.58-36.69-7.77-9.66-24.73-4.59-35.1-11.43-6.93-4.59-9.37-13.41-13.26-20.78s-11.88-14.28-20-11.13c-7.29,2.83-10,12.61-7.41,19.66s8.66,12,14.6,16.45,12.15,9.19,15,16.1c2.68,6.43,2.1,14,4.53,20.52,5.94,15.95,27.11,20.61,35.16,35.51,2.69,5,3.69,10.73,5.29,16.21a18.61,18.61,0,0,0,6.4,8.84H631C634.33,517,635.53,510.66,636.07,503.42Z"/><path fill="#00ad66" d="M613.89,519.45a.49.49,0,0,1-.45-.3c-12.58-28.65-34.09-53.53-54.89-77.59-12.49-14.44-24.29-28.08-34.14-42.35a.5.5,0,0,1,.13-.7.49.49,0,0,1,.69.13c9.83,14.23,21.6,27.85,34.07,42.27,20.85,24.12,42.41,49,55.05,77.84a.5.5,0,0,1-.26.66A.45.45,0,0,1,613.89,519.45Z"/><path fill="#9bf2ef" d="M644.35,516.89c4.2-12.46-10.25-23.35-8.79-36.26,1.16-10.36,12.33-18.77,11.58-29.05-.85-11.76-16.52-16.79-18.69-28.31C626.11,410.81,640.81,399,639,386.42c-1.49-10.27-12.91-15.12-18.72-23.48-4.53-6.51-5.46-14.92-6.42-23s-2.29-16.45-7.36-22.53-15.18-8.62-21.62-3.2c-5.43,4.58-6.08,12.79-4,19.2s6.41,11.75,9.51,17.7,5,13.3,2,19.68C589,378.17,580,382.36,577.67,390c-2.19,7.15,2.24,14.13,6.85,19.58s9.89,11.31,9.71,18.66c-.28,11-12.89,20.83-10.11,31.31s19.31,13.17,19.67,24.13c.15,4.47-2.66,8.61-4.17,12.93-2.94,8.47,4.19,18.47,12.09,24.72H641.8A13.52,13.52,0,0,0,644.35,516.89Z"/><path fill="#00ad66" d="M626.7,513.67a.51.51,0,0,1-.5-.44c-1.79-14.61-4.42-29.25-7-43.4-1.86-10.37-3.79-21.09-5.34-31.58-1.73-11.7-2.68-22.93-3.6-33.78-2.17-25.61-4.21-49.79-15.55-80.92a.5.5,0,0,1,.3-.64.49.49,0,0,1,.64.3c11.38,31.26,13.53,56.63,15.61,81.17.92,10.84,1.87,22.06,3.59,33.72,1.55,10.48,3.47,21.19,5.33,31.55,2.54,14.17,5.17,28.82,7,43.46a.51.51,0,0,1-.44.56Z"/><path fill="#4c4ff7" d="M67.47,493.62a13.86,13.86,0,1,1,0-27.72h72.67v27.72Z"/><path fill="#3934e7" d="M209.31,489.22V470.3h2.2a2.2,2.2,0,0,0,0-4.4h-82a14.11,14.11,0,0,0-14.24,13.16,13.87,13.87,0,0,0,13.84,14.56h82.43a2.2,2.2,0,1,0,0-4.4Z"/><path fill="#f1f2f2" d="M129.08,489.22h80.23V470.3H129.08a9.46,9.46,0,0,0,0,18.92Z"/><path fill="#e95f7c" d="M208.06,421a13.86,13.86,0,0,0,0-27.72H123.43V421Z"/><path fill="#dc4e6f" d="M66.23,416.55V397.63H64a2.2,2.2,0,0,1,0-4.4h70.06a14.13,14.13,0,0,1,14.25,13.16A13.88,13.88,0,0,1,134.5,421H64a2.2,2.2,0,0,1,0-4.4Z"/><path fill="#f1f2f2" d="M134.5,416.55H66.23V397.63H134.5a9.46,9.46,0,1,1,0,18.92Z"/><path fill="#41a5fe" d="M226.25,521.34a13.86,13.86,0,0,0,0-27.72H141.62v27.72Z"/><path fill="#2e88ff" d="M84.42,516.94V498H82.21a2.2,2.2,0,1,1,0-4.4h70.07a14.12,14.12,0,0,1,14.25,13.16,13.88,13.88,0,0,1-13.85,14.56H82.21a2.2,2.2,0,1,1,0-4.4Z"/><path fill="#f1f2f2" d="M152.68,516.94H84.42V498h68.26a9.46,9.46,0,0,1,0,18.92Z"/><polygon fill="#fc5" points="107.04 515.28 101.72 512.17 96.4 515.28 96.4 502.58 107.04 502.58 107.04 515.28"/><path fill="#41a5fe" d="M200.39,465.9H122a14.14,14.14,0,1,1,0-28.27h78.36Z"/><path fill="#2e88ff" d="M230.78,462.37V441.15h3.93a1.76,1.76,0,1,0,0-3.52h-76.2A14.38,14.38,0,0,0,144,451.08a14.13,14.13,0,0,0,14.12,14.82h76.59a1.77,1.77,0,0,0,0-3.53Z"/><path fill="#f1f2f2" d="M230.78,441.15H158.12a10.62,10.62,0,1,0,0,21.23h72.66Z"/><path fill="#4c4ff7" d="M174.18,393.32h-66.4a14.14,14.14,0,1,1,0-28.27h66.4Z"/><path fill="#3934e7" d="M216.53,389.8V368.57h3.93a1.76,1.76,0,0,0,0-3.52h-76.2a14.4,14.4,0,0,0-14.52,13.45,14.14,14.14,0,0,0,14.12,14.82h76.6a1.76,1.76,0,0,0,0-3.52Z"/><path fill="#f1f2f2" d="M216.53,368.57H143.86a10.62,10.62,0,0,0,0,21.23h72.67Z"/><path fill="#81afdc" d="M242.23,421h-115v3.52h3.52v9.73h-3.52v3.52h115a8.39,8.39,0,1,0,0-16.77Z"/><path fill="#72a3d4" d="M206.68,421H93.83a1.76,1.76,0,1,0,0,3.52h1.76v9.73H93.83a1.76,1.76,0,1,0,0,3.52H207a8.39,8.39,0,0,0,8.38-8.64A8.62,8.62,0,0,0,206.68,421Z"/><path fill="#f1f2f2" d="M95.59,434.2v-9.73H207a4.87,4.87,0,0,1,0,9.73Z"/><path fill="#41a5fe" d="M218.09,326.33H141.74a1.76,1.76,0,1,0,0,3.52h1.76v31.68h-1.76a1.76,1.76,0,0,0,0,3.52h76.35a8.65,8.65,0,0,0,8.65-8.65V335A8.65,8.65,0,0,0,218.09,326.33Z"/><path fill="#2e88ff" d="M144.52,326.33H80.13a1.76,1.76,0,0,0,0,3.52h1.76v31.68H80.13a1.76,1.76,0,0,0,0,3.52h64.39a8.66,8.66,0,0,0,8.66-8.65V335A8.66,8.66,0,0,0,144.52,326.33Z"/><path fill="#f1f2f2" d="M105.06,311.8h21.42a5.13,5.13,0,0,1,5.13,5.13v62.64a0,0,0,0,1,0,0H99.93a0,0,0,0,1,0,0V316.94A5.13,5.13,0,0,1,105.06,311.8Z" transform="rotate(90 115.77 345.69)"/><polygon fill="#e95f7c" points="134.95 357.12 129.59 353.99 124.23 357.12 124.23 334.26 134.95 334.26 134.95 357.12"/><path fill="#2325b3" d="M212.4,261.94H574.1a11,11,0,0,1,11,11V510.38a0,0,0,0,1,0,0H201.35a0,0,0,0,1,0,0V273A11,11,0,0,1,212.4,261.94Z"/><path fill="#bfd5f7" d="M222.79,261.94h361.7a11,11,0,0,1,11,11V510.38a0,0,0,0,1,0,0H211.74a0,0,0,0,1,0,0V273A11,11,0,0,1,222.79,261.94Z"/><path fill="#565efe" d="M220.05,488.21V273a2.74,2.74,0,0,1,2.74-2.74h361.7a2.74,2.74,0,0,1,2.73,2.74V488.21Z"/><path fill="#565efe" d="M220.05,488.21V273a2.74,2.74,0,0,1,2.74-2.74h361.7a2.74,2.74,0,0,1,2.73,2.74V488.21Z"/><path fill="#2325b3" d="M584.49,270.25H222.79a2.74,2.74,0,0,0-2.74,2.74v7.26H574.49a2.74,2.74,0,0,1,2.73,2.74V488.21h10V273A2.74,2.74,0,0,0,584.49,270.25Z"/><path fill="#92bbf7" d="M288.87,521.37H660.78a11,11,0,0,0,0-22H288.87a11,11,0,0,0,0,22Z"/><path fill="#2325b3" d="M201.35,510.38a11,11,0,0,1,11-11H365.16a11,11,0,0,1,0,22H212.34A11,11,0,0,1,201.35,510.38Z"/><path fill="#565efe" d="M236.56,513.52h12.79a3.14,3.14,0,1,0,0-6.27H236.56a3.14,3.14,0,1,0,0,6.27Zm24-3.14a3.15,3.15,0,0,0,3.14,3.14h12.79a3.14,3.14,0,1,0,0-6.27H263.67A3.14,3.14,0,0,0,260.53,510.38Zm-37.34-3.13a3.14,3.14,0,1,0,3.13,3.13A3.14,3.14,0,0,0,223.19,507.25Z"/><rect width="367.17" height="5.61" x="220.05" y="376.43" fill="#7f85fe"/><rect width="367.17" height="11.73" x="220.05" y="382.04" fill="#2325b3"/><rect width="18.58" height="85.15" x="548.77" y="291.27" fill="#fc5"/><path fill="#fff" d="M558.07,366.54a4.79,4.79,0,0,1-4.8-4.79v-57a4.8,4.8,0,0,1,9.59,0v57A4.79,4.79,0,0,1,558.07,366.54Z"/><rect width="36.65" height="85.15" x="512.12" y="291.27" fill="#ffaa45"/><rect width="18.58" height="85.15" x="525.98" y="291.27" fill="#81afdc"/><path fill="#fff" d="M533.23,357.84h4.09a2.75,2.75,0,0,0,2.75-2.74V321a2.75,2.75,0,0,0-2.75-2.75h-4.09a2.75,2.75,0,0,0-2.75,2.75V355.1A2.75,2.75,0,0,0,533.23,357.84Zm-3.66-57.34a2.75,2.75,0,0,0,2.75,2.75h5.91a2.75,2.75,0,1,0,0-5.49h-5.91A2.75,2.75,0,0,0,529.57,300.5Zm2.75,10.36h5.91a2.75,2.75,0,0,0,0-5.5h-5.91a2.75,2.75,0,0,0,0,5.5Zm.91,61.07h4.09a2.75,2.75,0,0,0,2.75-2.75v-4.09a2.75,2.75,0,0,0-2.75-2.75h-4.09a2.75,2.75,0,0,0-2.75,2.75v4.09A2.75,2.75,0,0,0,533.23,371.93Z"/><rect width="36.65" height="85.15" x="489.33" y="291.27" fill="#5088bf"/><rect width="18.58" height="85.15" x="503.19" y="291.27" fill="#4c4ff7"/><path fill="#fff" d="M514.53,318.27h-4.09a2.75,2.75,0,0,0-2.75,2.75V355.1a2.75,2.75,0,0,0,2.75,2.74h4.09a2.75,2.75,0,0,0,2.75-2.74V321A2.75,2.75,0,0,0,514.53,318.27Zm-7.75-17.77a2.75,2.75,0,0,0,2.75,2.75h5.91a2.75,2.75,0,1,0,0-5.49h-5.91A2.75,2.75,0,0,0,506.78,300.5Zm8.66,4.86h-5.91a2.75,2.75,0,0,0,0,5.5h5.91a2.75,2.75,0,0,0,0-5.5Zm-.91,57h-4.09a2.75,2.75,0,0,0-2.75,2.75v4.09a2.75,2.75,0,0,0,2.75,2.75h4.09a2.75,2.75,0,0,0,2.75-2.75v-4.09A2.76,2.76,0,0,0,514.53,362.34Z"/><rect width="36.65" height="85.15" x="466.54" y="291.27" fill="#3934e7"/><rect width="18.58" height="85.15" x="480.4" y="291.27" fill="#e95f7c"/><polygon fill="#fff" points="480.4 313.96 485.69 320.08 490.98 313.96 490.98 291.27 480.4 291.27 480.4 313.96"/><rect width="36.65" height="85.15" x="443.75" y="291.27" fill="#dc4e6f"/><rect width="80.07" height="18.58" x="417.95" y="326.1" fill="#4c4ff7" transform="rotate(-80 457.98 335.388)"/><polygon fill="#3934e7" points="419.13 294.35 455.79 294.35 441.88 373.2 405.23 373.2 419.13 294.35"/><polygon fill="#3934e7" points="423.53 376.43 460.19 376.43 441.88 373.2 405.23 373.2 423.53 376.43"/><rect width="9.69" height="62.31" x="425.35" y="314.12" fill="#81afdc"/><rect width="34.51" height="62.31" x="390.84" y="314.12" fill="#5088bf"/><path fill="#fff" d="M432.69,325.85h-5v48.23h5Zm.07-6.11a2.57,2.57,0,1,0-2.56,2.56A2.56,2.56,0,0,0,432.76,319.74Z"/><rect width="9.69" height="62.31" x="412.72" y="314.12" fill="#81afdc"/><rect width="34.51" height="62.31" x="378.21" y="314.12" fill="#5088bf"/><path fill="#fff" d="M420.06,325.85h-5v48.23h5Zm.07-6.11a2.57,2.57,0,1,0-2.57,2.56A2.56,2.56,0,0,0,420.13,319.74Z"/><rect width="9.69" height="62.31" x="400.09" y="314.12" fill="#fc5"/><rect width="34.51" height="62.31" x="365.57" y="314.12" fill="#ffaa45"/><path fill="#fff" d="M407.43,325.85h-5v48.23h5Zm.07-6.11a2.57,2.57,0,1,0-2.57,2.56A2.56,2.56,0,0,0,407.5,319.74Z"/><rect width="9.69" height="37.06" x="372.51" y="338.83" fill="#4c4ff7" transform="rotate(-20 377.37 357.371)"/><polygon fill="#3934e7" points="366.46 341.6 351.16 341.6 363.83 376.43 379.14 376.43 366.46 341.6"/><polygon fill="#3934e7" points="366.46 341.6 351.16 341.6 360.26 338.29 375.57 338.29 366.46 341.6"/><path fill="#fff" d="M377.38,350.12l-4.7,1.71,7.86,21.59,4.7-1.71Zm-6.85-4a2.57,2.57,0,1,0,1.53-3.29A2.57,2.57,0,0,0,370.53,346.11Z"/><rect width="41.2" height="95.08" x="310.88" y="281.35" fill="#dc4e6f"/><rect width="14.38" height="95.08" x="352.08" y="281.35" fill="#e95f7c"/><path fill="#fff" d="M358.48,363h2.87a1.94,1.94,0,0,0,1.94-1.94V301.23a1.94,1.94,0,0,0-1.94-1.94h-2.87a1.94,1.94,0,0,0-1.94,1.94v59.84A1.94,1.94,0,0,0,358.48,363Zm-2.58-76.22a1.93,1.93,0,0,0,1.93,1.93H362a1.94,1.94,0,1,0,0-3.87h-4.16A1.94,1.94,0,0,0,355.9,286.79Zm1.93,7.28H362a1.94,1.94,0,1,0,0-3.87h-4.16a1.94,1.94,0,0,0,0,3.87Zm.65,78.85h2.87a1.94,1.94,0,0,0,1.94-1.93v-2.88a1.93,1.93,0,0,0-1.94-1.93h-2.87a1.93,1.93,0,0,0-1.94,1.93V371A1.94,1.94,0,0,0,358.48,372.92Z"/><rect width="14.38" height="88.04" x="325.74" y="288.39" fill="#4c4ff7"/><path fill="#fff" d="M331.5,360.55h2.87a1.94,1.94,0,0,0,1.94-1.93V310.73a1.94,1.94,0,0,0-1.94-1.94H331.5a1.94,1.94,0,0,0-1.94,1.94v47.89A1.94,1.94,0,0,0,331.5,360.55Zm-2.58-64.26a1.93,1.93,0,0,0,1.93,1.93H335a1.94,1.94,0,1,0,0-3.87h-4.16A1.94,1.94,0,0,0,328.92,296.29Zm1.93,7.28H335a1.94,1.94,0,1,0,0-3.87h-4.16a1.94,1.94,0,0,0,0,3.87Zm.65,66.89h2.87a1.94,1.94,0,0,0,1.94-1.93v-2.88a1.93,1.93,0,0,0-1.94-1.93H331.5a1.93,1.93,0,0,0-1.94,1.93v2.88A1.94,1.94,0,0,0,331.5,370.46Z"/><rect width="37.71" height="88.04" x="288.03" y="288.39" fill="#3934e7"/><rect width="7.34" height="69.35" x="307.32" y="307.08" fill="#81afdc"/><rect width="13.48" height="69.35" x="293.84" y="307.08" fill="#5088bf"/><path fill="#fff" d="M311,366.72a1.34,1.34,0,0,0,1.33-1.33V318.12a1.33,1.33,0,0,0-2.66,0v47.27A1.34,1.34,0,0,0,311,366.72Zm-1.33-56.05v2.2a1.33,1.33,0,0,0,2.66,0v-2.2a1.33,1.33,0,0,0-2.66,0ZM311,374.16a1.33,1.33,0,0,0,1.33-1.33v-2.19a1.33,1.33,0,0,0-2.66,0v2.19A1.33,1.33,0,0,0,311,374.16Z"/><rect width="7.34" height="69.35" x="297.99" y="307.08" fill="#81afdc"/><rect width="13.48" height="69.35" x="284.51" y="307.08" fill="#5088bf"/><path fill="#fff" d="M301.66,366.72a1.33,1.33,0,0,0,1.33-1.33V318.12a1.33,1.33,0,1,0-2.65,0v47.27A1.33,1.33,0,0,0,301.66,366.72Zm-1.32-56.05v2.2a1.33,1.33,0,1,0,2.65,0v-2.2a1.33,1.33,0,0,0-2.65,0Zm1.32,63.49a1.32,1.32,0,0,0,1.33-1.33v-2.19a1.33,1.33,0,1,0-2.65,0v2.19A1.32,1.32,0,0,0,301.66,374.16Z"/><rect width="7.34" height="69.35" x="288.67" y="307.08" fill="#81afdc"/><rect width="34.52" height="69.35" x="254.15" y="307.08" fill="#5088bf"/><path fill="#fff" d="M292.34,366.72a1.33,1.33,0,0,0,1.32-1.33V318.12a1.33,1.33,0,1,0-2.65,0v47.27A1.34,1.34,0,0,0,292.34,366.72ZM291,310.67v2.2a1.33,1.33,0,1,0,2.65,0v-2.2a1.33,1.33,0,0,0-2.65,0Zm1.33,63.49a1.32,1.32,0,0,0,1.32-1.33v-2.19a1.33,1.33,0,1,0-2.65,0v2.19A1.33,1.33,0,0,0,292.34,374.16Z"/><rect width="18.58" height="62.07" x="558.95" y="424.97" fill="#4c4ff7" transform="rotate(-10 568.289 456)"/><path fill="#fff" d="M571.48,446.76,562,448.43,568.13,483l9.44-1.67Zm-1.91-11.56a4.91,4.91,0,1,0-4,5.69A4.92,4.92,0,0,0,569.57,435.2Z"/><polygon fill="#3934e7" points="527.83 488.18 564.48 488.18 553.71 427.05 517.05 427.05 527.83 488.18"/><polygon fill="#3934e7" points="535.51 423.82 572.16 423.82 553.71 427.05 517.05 427.05 535.51 423.82"/><rect width="18.58" height="71.07" x="535.12" y="417.11" fill="#81afdc"/><rect width="36.65" height="71.07" x="498.47" y="417.11" fill="#5088bf"/><path fill="#fff" d="M549.2,423h-9.58v44.08h9.58Zm-4.79,50.88a4.92,4.92,0,1,0,4.92,4.91A4.91,4.91,0,0,0,544.41,473.85Z"/><rect width="36.65" height="71.07" x="473.91" y="417.11" fill="#dc4e6f"/><rect width="18.58" height="71.07" x="510.56" y="417.11" fill="#e95f7c"/><path fill="#fff" d="M524.65,439.61h-9.59v44.07h9.59Zm.12-11.72a4.92,4.92,0,1,0-4.92,4.91A4.92,4.92,0,0,0,524.77,427.89Z"/><rect width="18.58" height="71.07" x="486" y="417.11" fill="#fc5"/><path fill="#fff" d="M500.08,439.61H490.5v44.07h9.58Zm.13-11.72a4.92,4.92,0,1,0-4.92,4.91A4.92,4.92,0,0,0,500.21,427.89Z"/><rect width="36.65" height="71.07" x="449.35" y="417.11" fill="#ffaa45"/><rect width="23.08" height="89.07" x="450.99" y="399.11" fill="#81afdc"/><polygon fill="#e95f7c" points="457.25 426.3 462.53 432.41 467.82 426.3 467.82 399.11 457.25 399.11 457.25 426.3"/><rect width="36.65" height="89.07" x="414.34" y="399.11" fill="#5088bf"/><rect width="36.65" height="89.07" x="387.05" y="399.11" fill="#3934e7"/><rect width="23.08" height="89.07" x="423.7" y="399.11" fill="#4c4ff7"/><path fill="#fff" d="M429.93,409.18h10.62a2.65,2.65,0,0,0,0-5.3H429.93a2.65,2.65,0,0,0,0,5.3Zm10.62,68.93H429.93a2.65,2.65,0,0,0,0,5.29h10.62a2.65,2.65,0,1,0,0-5.29Zm-11.91-61.56v54.19a2.54,2.54,0,1,0,5.08,0V416.55a2.54,2.54,0,0,0-5.08,0Zm8.12,0v54.19a2.54,2.54,0,1,0,5.08,0V416.55a2.54,2.54,0,1,0-5.08,0Z"/><rect width="36.65" height="89.07" x="359.76" y="399.11" fill="#5088bf"/><rect width="23.08" height="89.07" x="396.41" y="399.11" fill="#81afdc"/><path fill="#fff" d="M408,480.55a4,4,0,0,1-4-4V410.7a4,4,0,1,1,7.93,0v65.89A4,4,0,0,1,408,480.55Z"/><rect width="80.07" height="23.08" x="338.06" y="435.21" fill="#4c4ff7" transform="rotate(-80 378.095 446.746)"/><path fill="#fff" d="M372.55,426.38l17.72,3.12a2.55,2.55,0,0,0,3-2.06l1.08-6.17a2.54,2.54,0,0,0-2.06-2.95l-17.72-3.12a2.55,2.55,0,0,0-2.95,2.06l-1.09,6.17A2.55,2.55,0,0,0,372.55,426.38ZM361,477.24a2.53,2.53,0,0,0,2.06,2.94l17.72,3.13a2.54,2.54,0,0,0,3-2.07l0-.2a2.55,2.55,0,0,0-2.07-3L364,475a2.55,2.55,0,0,0-3,2.06Zm19.74-7.49L386.51,437a2.54,2.54,0,1,0-5-.88l-5.78,32.73a2.54,2.54,0,0,0,5,.88Zm-7.23-35-5.77,32.73a2.54,2.54,0,1,0,5,.88l5.77-32.73a2.54,2.54,0,1,0-5-.88Z"/><polygon fill="#3934e7" points="337.02 405.32 373.68 405.32 359.77 484.17 323.12 484.17 337.02 405.32"/><polygon fill="#3934e7" points="345.85 488.18 382.51 488.18 359.77 484.17 323.12 484.17 345.85 488.18"/><rect width="14.08" height="84.57" x="339.91" y="403.61" fill="#81afdc"/><path fill="#fff" d="M343.5,415.24a2.25,2.25,0,0,0,2.25,2.25h2.41a2.25,2.25,0,1,0,0-4.5h-2.41A2.25,2.25,0,0,0,343.5,415.24Zm4.66,6.75h-2.41a2.25,2.25,0,0,0,0,4.5h2.41a2.25,2.25,0,1,0,0-4.5Zm0,9h-2.41a2.25,2.25,0,0,0,0,4.5h2.41a2.25,2.25,0,1,0,0-4.5Zm0,34.79h-2.41a2.25,2.25,0,0,0,0,4.5h2.41a2.25,2.25,0,1,0,0-4.5Zm0,9h-2.41a2.25,2.25,0,0,0,0,4.5h2.41a2.25,2.25,0,1,0,0-4.5Z"/><rect width="36.65" height="84.57" x="303.26" y="403.61" fill="#5088bf"/><rect width="14.08" height="72.61" x="321.62" y="415.57" fill="#4c4ff7"/><polygon fill="#fff" points="321.62 449.5 326.91 446.62 332.19 449.5 332.19 415.56 321.62 415.56 321.62 449.5"/><rect width="36.65" height="72.62" x="284.97" y="415.57" fill="#3934e7"/><rect width="14.08" height="60.66" x="303.33" y="427.52" fill="#fc5"/><rect width="36.65" height="60.66" x="266.68" y="427.52" fill="#ffaa45"/><rect width="14.08" height="84.57" x="285.04" y="403.61" fill="#e95f7c"/><rect width="36.65" height="84.57" x="248.38" y="403.61" fill="#dc4e6f"/><rect width="80.07" height="14.08" x="231.12" y="440.49" fill="#4c4ff7" transform="rotate(-80 271.154 447.528)"/><rect width="4.5" height="14.08" x="273.83" y="412.51" fill="#fff" transform="rotate(-80 276.083 419.556)"/><rect width="4.5" height="14.08" x="272.27" y="421.38" fill="#fff" transform="rotate(-80 274.529 428.416)"/><rect width="4.5" height="14.08" x="270.71" y="430.24" fill="#fff" transform="rotate(-80.2 273.363 439.29)"/><rect width="4.5" height="14.08" x="265.45" y="460.08" fill="#fff" transform="rotate(-80 267.7 467.121)"/><rect width="4.5" height="14.08" x="263.89" y="468.94" fill="#fff" transform="rotate(-80 266.14 475.976)"/><polygon fill="#3934e7" points="234.51 406.88 271.17 406.88 257.26 485.74 220.61 485.74 234.51 406.88"/><polygon fill="#3934e7" points="234.48 488.18 271.13 488.18 257.26 485.74 220.61 485.74 234.48 488.18"/><rect width="33.29" height="33.29" x="233.7" y="343.44" fill="#fff" rx="5.78"/><path fill="#4c4ff7" d="M256.19,353.45H244.51A3.52,3.52,0,0,0,241,357v6.67a3.52,3.52,0,0,0,3.51,3.52H249l3.85,4.16,0-4.16h3.37a3.52,3.52,0,0,0,3.51-3.52V357A3.52,3.52,0,0,0,256.19,353.45Z"/><path fill="#fff" d="M255.19,361.87h-9.68a.7.7,0,1,0,0,1.4h9.68a.7.7,0,0,0,0-1.4Zm0-2.62h-9.68a.7.7,0,1,0,0,1.4h9.68a.7.7,0,0,0,0-1.4ZM245.51,358h9.68a.7.7,0,1,0,0-1.4h-9.68a.7.7,0,0,0,0,1.4Z"/><rect width="3.15" height="11.69" x="539.64" y="129.1" fill="#41a5fe"/><path fill="#41a5fe" d="M443,135.54V254c0,.31,0,.61,0,.92a7.68,7.68,0,0,0,7.75,7h90.44a1.57,1.57,0,0,0,1.57-1.58V141Z"/><path fill="#2e88ff" d="M450.78,142.55h90.44a1.58,1.58,0,0,0,0-3.16h-1.58v-8.71h1.58a1.58,1.58,0,0,0,0-3.15H450.53a7.51,7.51,0,0,0-7.5,8A7.68,7.68,0,0,0,450.78,142.55Z"/><path fill="#f1f2f2" d="M539.64,130.68v8.71H450.52a4.36,4.36,0,0,1,0-8.71Z"/><path fill="#41a5fe" d="M450.52,130.68a4.36,4.36,0,0,0-4.35,4.36,4.21,4.21,0,0,0,.17,1.18,4.34,4.34,0,0,1,4.18-3.17h89.12v-2.37Z"/><rect width="4.07" height="18" x="564.6" y="170.97" fill="#4c4ff7"/><path fill="#4c4ff7" d="M496.06,179.69v72.47a4.17,4.17,0,0,1,0,.5,10,10,0,0,0,10.05,9.28h61a1.55,1.55,0,0,0,1.55-1.55v-73Z"/><path fill="#3934e7" d="M565.58,172.53v13.34h1.55a1.55,1.55,0,1,1,0,3.1h-61a10,10,0,0,1-10.05-9.28,9.8,9.8,0,0,1,9.77-10.27h61.29a1.56,1.56,0,0,1,0,3.11Z"/><path fill="#f1f2f2" d="M505.84,172.53h59.74v13.34H505.84a6.67,6.67,0,1,1,0-13.34Z"/><path fill="#4c4ff7" d="M505.84,172.53a6.66,6.66,0,0,0-6.67,6.67,7.28,7.28,0,0,0,.07.93,6.67,6.67,0,0,1,6.6-5.74h59.74v-1.86Z"/><path fill="#37384f" d="M262.12,125.83c0,3.49,3.13,13.54,5.23,17.56,2.38,4.57,1.83,6.09-2,9.57-1.34,1.24-12.23,2.66-12.23-1.37V134.74l4-7.69Z"/><path fill="#1068e6" d="M261,184.11s-9.87-33.66.84-37.35c4.37,1.81,6.75,4.81,6.71,10.84l-.84,21.54Z"/><path fill="#1068e6" d="M292.33,187.18l-.62,2.65c-6.5,1-23-1-30.7-5.72l1.48-3.53L265,177Z"/><path fill="#b3680a" d="M291.71,189.83l5.69-.6,3.15,1,0-1a2.93,2.93,0,0,0-1.7-2.69l-1.67-.78,1.59-.45,1.31.56.71-.39-2.06-1-3.23.54-3.81,1.94Z"/><path fill="#1274ff" d="M239.3,172c-1.25-7.65-2.25-14.87-.76-23.94,9.6-4.63,14.81-4.71,22.65-1.6a5.48,5.48,0,0,1,3.48,5.37c-.38,7.47-.52,16.93-.56,25.32H238.18A8.26,8.26,0,0,0,239.3,172Z"/><path fill="#1068e6" d="M239.3,172a87.68,87.68,0,0,1-1.5-15.6L249,155a56.43,56.43,0,0,0,10,17.74l-3.89,4.38H238.18A8.26,8.26,0,0,0,239.3,172Z"/><path fill="#37384f" d="M264.11,177.14c-.05,11.33.09,20.72.09,20.72H230.61c0-10.44,5.16-16,7.57-20.72Z"/><path fill="#1274ff" d="M249.36,183.4l-3.05-1.58c-1-.43-13.72-32.13-7.77-33.77,4.28-.71,9.65,2.44,10.79,8.36l4,20.33Z"/><path fill="#1274ff" d="M246.31,181.82l-.87-7.88,25.67-11.25,1.47,2.86c-3.7,6.27-15.51,14.5-23.22,17.85Z"/><path fill="#ccdbff" d="M274.58,159v3.68a2.53,2.53,0,0,0,2.53,2.52h1.22a3,3,0,0,0,2.67,1.63h1.61a3,3,0,0,0,3-3v-9H278v1.63h-.86A2.54,2.54,0,0,0,274.58,159Zm1.6,0a.93.93,0,0,1,.93-.93H278v5.53h-.86a.93.93,0,0,1-.93-.92Z"/><polygon fill="#b3680a" points="277.69 159.78 276.18 158.98 276.18 160.05 275.37 160.1 274.63 159.49 274.77 158.04 275.77 156.89 275.44 156.23 273.35 157.3 272.44 158.99 271.11 162.69 272.58 165.55 277.42 164.54 277.42 160.98 277.69 159.78"/><polygon fill="#b3680a" points="256.9 138.07 256.27 147.96 250.43 144.41 251.22 135.29 256.9 138.07"/><path fill="#b3680a" d="M261.12,136.68c0,1.56-1.55,2.93-4.46,1.76L252,135.36l-2.11-6.72,2.71-5.63,8.66.67Z"/><path fill="#37384f" d="M255.11,127.84l6.14-1.54a3.59,3.59,0,0,0,2.05-2,1.86,1.86,0,0,0-2-2.55l-8.37-.14c-3.72-.1-5.29,2.64-4.22,6.79Z"/><path fill="#37384f" d="M248.55,127.56c1.11,5.46-2.11,8.1-5.21,10.54l-3.7,2.73a5.64,5.64,0,0,0-1.79,5.6,5.75,5.75,0,0,0,7,3.84c6.34-1.29,10.31-5.76,9.9-23.15Z"/><path fill="#37384f" d="M301.54,208.51a10.64,10.64,0,0,1-10.65,10.64H254.25c-13.86,0-20-11.77-20-21.29h56.63a10.65,10.65,0,0,1,10.65,10.65Z"/><path fill="#37384f" d="M278.17,216.22c-15.52,2.93-16.66,2.93-27.57,2.93-13.87,0-20-11.77-20-21.29h50.88a9.23,9.23,0,0,1,8.76,7Z"/><polygon fill="#37384f" points="307.14 256.2 310.75 255.4 318.9 259.4 322.86 260.04 322.98 261.94 307.14 261.94 307.14 256.2"/><path fill="#b3680a" d="M310.75,255.4l-3.61.81c-1.25-.94-2.95-3.18-6.34-6.12l6.48-1.8Z"/><path fill="#37384f" d="M276.85,214.74l13.4-9.92,18,43.47-7.92,2.92C292.29,241.28,282.79,226.1,276.85,214.74Z"/><path fill="#8bacff" d="M272.41,198h33.43a1,1,0,0,0,1-1l5.59-23.24a.76.76,0,0,0-.75-1H278.23a1.31,1.31,0,0,0-1.2,1L271.44,197A1,1,0,0,0,272.41,198Z"/><path fill="#ccdbff" d="M313.26,172.76H279.83a1.31,1.31,0,0,0-1.2,1L273,196.35h-8.8V197a1,1,0,0,0,1,1h42.23a1,1,0,0,0,1-1L314,173.74A.76.76,0,0,0,313.26,172.76Z"/><path fill="#8bacff" d="M273,196.35V197a1,1,0,0,1-1,1H254.64a1,1,0,0,1-1-1v-.63Z"/><polygon fill="#b3680a" points="239.87 214.1 235.09 215.11 236.67 219.1 241.87 219.16 239.87 214.1"/><path fill="#37384f" d="M239.14,212.27l2.73,6.88h38.36a14.72,14.72,0,0,0-16.67-11.58C254.84,209,246.21,210.72,239.14,212.27Z"/><polygon fill="#37384f" points="235.09 215.11 236.67 219.1 234.77 224.07 235.67 228.23 233.85 229.08 228.64 215.91 235.09 215.11"/><rect width="57.51" height="57.51" x="400.25" y="176.16" fill="#81afdc" rx="9.98"/><path fill="#f1f2f2" d="M429,185.65a19.26,19.26,0,1,0,19.26,19.26A19.28,19.28,0,0,0,429,185.65Zm16.33,17.83h-4.46a25.21,25.21,0,0,0-3.8-12.84A16.43,16.43,0,0,1,445.34,203.48Zm-17.76-14.75v14.75H420C420.37,196.1,423.58,189.94,427.58,188.73Zm0,17.61V221.1c-4-1.21-7.21-7.37-7.58-14.76Zm2.86,14.76V206.34H438C437.64,213.73,434.43,219.89,430.44,221.1Zm0-17.62V188.73c4,1.21,7.2,7.37,7.57,14.75Zm-9.5-12.84a25.11,25.11,0,0,0-3.8,12.84h-4.47A16.44,16.44,0,0,1,420.94,190.64Zm-8.27,15.7h4.47a25.05,25.05,0,0,0,3.8,12.84A16.42,16.42,0,0,1,412.67,206.34Zm24.41,12.84a25.15,25.15,0,0,0,3.8-12.84h4.46A16.41,16.41,0,0,1,437.08,219.18Z"/><rect width="42.89" height="42.89" x="241.31" y="219.05" fill="#fc5" rx="7.44"/><rect width="42.89" height="42.89" x="403.99" y="445.23" fill="#fc5" rx="7.44"/><path fill="#fff" d="M436.36,471.66v-2.79l-3.23-.46a9.89,9.89,0,0,0-1.51-3.66l2-2.61-2-2-2.62,2a9.59,9.59,0,0,0-3.65-1.51l-.46-3.24h-2.79l-.46,3.24a9.57,9.57,0,0,0-3.66,1.51l-2.61-2-2,2,2,2.61a9.57,9.57,0,0,0-1.51,3.66l-3.24.46v2.79l3.24.46a9.7,9.7,0,0,0,1.51,3.66l-2,2.61,2,2,2.61-2a9.57,9.57,0,0,0,3.66,1.51l.46,3.24h2.79l.46-3.24A9.59,9.59,0,0,0,429,478.4l2.62,2,2-2-2-2.61a10,10,0,0,0,1.51-3.66Zm-9.12-.8a3.8,3.8,0,1,1-4.36-4.35A3.84,3.84,0,0,1,427.24,470.86Z"/><path fill="#4c4ff7" d="M440.88,456.09v-1.4l-1.61-.23a4.87,4.87,0,0,0-.76-1.83l1-1.3-1-1-1.3,1a4.7,4.7,0,0,0-1.83-.75l-.23-1.62h-1.39l-.24,1.62a4.72,4.72,0,0,0-1.82.75l-1.31-1-1,1,1,1.3a5,5,0,0,0-.75,1.83l-1.62.23v1.4l1.62.23a5,5,0,0,0,.75,1.82l-1,1.31,1,1,1.31-1a5,5,0,0,0,1.82.75l.24,1.62h1.39l.23-1.62a5,5,0,0,0,1.83-.75l1.3,1,1-1-1-1.31a4.89,4.89,0,0,0,.76-1.82Zm-4.59-.23a1.89,1.89,0,0,1-1.37,1.37,1.9,1.9,0,0,1-2.32-2.31,1.89,1.89,0,0,1,1.37-1.37A1.91,1.91,0,0,1,436.29,455.86Z"/><path fill="#fff" d="M261.93,241.61l3.13-12.43a12.83,12.83,0,1,0,9.3,9.3Z"/><path fill="#e95f7c" d="M268.61,225l-.21.83-3.13,12.44,12.44-3.13.83-.21A13.67,13.67,0,0,0,268.61,225Z"/><path fill="#dc4e6f" d="M392.16,261.94h66.4a14.14,14.14,0,1,0,0-28.27h-66.4Z"/><path fill="#e95f7c" d="M349.81,258.42V237.19h-3.93a1.76,1.76,0,1,1,0-3.52h76.2a14.4,14.4,0,0,1,14.52,13.45,14.14,14.14,0,0,1-14.12,14.82h-76.6a1.76,1.76,0,0,1,0-3.52Z"/><path fill="#f1f2f2" d="M349.81,237.19h72.67a10.62,10.62,0,0,1,0,21.23H349.81Z"/><path fill="#ffb95d" d="M351.57,141.13l5.48,1.69S368,124,372.28,114.18L362,108.64c-4.37,11.06-8.3,19.8-11,30.28Z"/><path fill="#61404b" d="M355.44,204.3l8.33-46.83h18.91c-2.2,14.84-8.18,33.54-13.7,47.82Z"/><polygon fill="#704a57" points="392.91 157.47 373.73 169.59 363.77 157.53 392.91 157.47"/><path fill="#704a57" d="M377.25,204.3l-4.75-46.83h20.41c1.3,15-.09,32-2.17,46.83Z"/><path fill="#704a57" d="M390.74,204.3c1.55,16.95,2.31,31.72-1.15,51.55h-7.21l-5.13-51.55Z"/><path fill="#ffd75d" d="M364.73,141.25c0-7.1-2.15-22.3-2.85-30.92a5,5,0,0,1,3.38-5.14c10.17-3.46,23.72-3.51,33.86,1.38.37,11.66-5.56,36.56-5.56,36.56l-.15,24.4H361.77l3-26.27Z"/><path fill="#ffb95d" d="M394.46,135.74l-3.7-14.38-1.91,12.57L380,127.81c3.58,11.19,6.88,16.83,13,23.1Z"/><path fill="#ffd75d" d="M400.67,142.75l5.19-2.44s-2.6-31.77-6.74-33.74a13.63,13.63,0,0,0-8,16.36l5.09,17.91Z"/><path fill="#ffd75d" d="M405.86,140.31a7.31,7.31,0,0,1-1.37,6.11,4.47,4.47,0,0,1-6.58.29c-6.86-6.75-16-15.75-19.1-20.61l.67-2.73Z"/><path fill="#f4acc8" d="M378.81,126.1l-5-.69-3.13,1.09,0-1a2.94,2.94,0,0,1,1.63-2.74l1.65-.82-3.27-.07-.35-.71,5.28,0,3.89,2.24Z"/><polygon fill="#37384f" points="387.45 255.85 384.24 255.85 379.48 259.24 376.34 259.93 376.37 261.94 387.56 261.94 387.45 255.85"/><path fill="#61404b" d="M368.93,204.3c1.56,16.95,2.31,31.72-1.15,51.55h-7.21l-5.13-51.55Z"/><polygon fill="#37384f" points="366.3 255.85 362.08 255.85 357.06 259.24 352.86 259.93 352.73 261.94 365.92 261.94 366.3 255.85"/><polygon fill="#e4e7eb" points="369.41 132.78 356.03 122.4 349.53 101.08 362.91 111.46 369.41 132.78"/><polygon fill="#f0f3f7" points="382.24 128.77 365.37 134.04 358.87 112.72 375.74 107.45 376.76 108.76 382.24 128.77"/><polygon fill="#f0f3f7" points="370.37 133.04 355.64 129.04 346.71 110.22 349.14 107.72 363.87 111.72 370.37 133.04"/><polygon fill="#dc4e6f" points="367.37 135.04 352.64 131.04 346.14 109.72 360.87 113.72 367.37 135.04"/><polygon fill="#e95f7c" points="384.24 129.77 367.37 135.04 360.87 113.72 377.74 108.45 384.24 129.77"/><polygon fill="#f4acc8" points="352.69 127.31 351.9 123.36 352.5 120.67 351.43 117.2 347.15 119.77 347.58 124.31 350.1 127.81 352.69 127.31"/><path fill="#ffb95d" d="M349.61,140.83l.49-13,2.58-.5,4.38,11.27v4.24C354.25,146.76,349.61,145.93,349.61,140.83Z"/><polygon fill="#f4acc8" points="375.74 97.04 374.51 107.2 382.38 103.56 381.57 94.18 375.74 97.04"/><path fill="#f4acc8" d="M372.48,97.87c.32,1.57,2.17,2.62,4.85.84l4-4.07.73-7.2-3.9-5.11-8.59,2.49Z"/><path fill="#37384f" d="M379.45,90.27c-.95,2.34-1.87,1.14-2.77-2.56l-2.77-2.19.36,2.48-5.42-.54-.31-1.82c-.22-1.7,1.91-3.26,3.6-3.59L377.5,81c3.71-.95,5.91,1.45,5.78,5.85l-.35,5.39c-.1,1.45,0,2.2-1.23,3l-1.95-2.82Z"/><path fill="#37384f" d="M377.05,89.09l1.58,1.1a75.44,75.44,0,0,1,1.55,8.45l-4.36,1.58c-2.43.83-3.81.4-3.81-1.24l.15-3.11,5.12-.82Z"/><path fill="#f4acc8" d="M378.55,90.61c-.16,1,.15,1.83.69,1.92s1.13-.61,1.29-1.58-.14-1.84-.69-1.93S378.72,89.64,378.55,90.61Z"/><path fill="#37384f" d="M659.73,481.55,619,481.17l-3.61,19.19c13.67.51,30.94-1.38,45.49-3.82a7.55,7.55,0,0,0-1.17-15Z"/><path fill="#37384f" d="M599.78,482.28l24.69-.88-.08,19.13c-13.66.74-10.95-1-25.54-3.24a7.55,7.55,0,0,1,.93-15Z"/><path fill="#2a80f7" d="M646.79,470.93l-5.68.79s-7.73-20.34-10.42-30.72c0,0,6.54-8,8.84-6.67,3.85,9.65,7.32,25.25,8.17,34.51Z"/><path fill="#2a80f7" d="M639.53,434.33c-9.62-6.79-26-7.47-38.56-4.06-2.59,11.76-2.54,38.33-2.54,38.33l1.4,13.76h30.59l-3.85-12.22C629.73,459.92,638.67,440.63,639.53,434.33Z"/><path fill="#1068e6" d="M610.52,443.06l-11.35,2.27c-.76,11.39-.74,23.27-.74,23.27l1.13,11.11a17,17,0,0,0,14.33-7.57C608.77,469.1,608.67,457.71,610.52,443.06Z"/><polygon fill="#f4acc8" points="626.03 424.18 625.36 434.73 618.05 429.53 620.99 421.07 626.03 424.18"/><path fill="#f4acc8" d="M628.78,428.22c-.94,1.36-3.13,1.6-4.94-1.18l-2.16-5.51,2.25-7.12,5.78-3.25,7.13,5.86Z"/><path fill="#37384f" d="M625.3,418.23c0,2.61,1.34,1.83,3.65-1.35l6.66,2.55,4.49-3.1-2.12-1-7.19-5.21c-3.17-2.35-6.21-.92-7.8,3.33l-1.78,5.28c-.48,1.43-.85,2.11,0,3.34l3-1.93Z"/><path fill="#f4acc8" d="M626,418.86c-.24,1-.88,1.68-1.44,1.54s-.81-1-.57-2,.88-1.68,1.43-1.55S626.23,417.87,626,418.86Z"/><path fill="#2a80f7" d="M606.92,502.67l4.77-1.12a2,2,0,0,1,.48-.06l9.45,0a2.1,2.1,0,0,1,1.92,1.24l.27.62a4.94,4.94,0,0,1-.22,4.46,2.12,2.12,0,0,1-1.82,1.06l-9.18,0a2,2,0,0,1-.77-.15l-5.19-2.06a2.1,2.1,0,0,1,.29-4Z"/><path fill="#f4acc8" d="M620.29,501.53a3.43,3.43,0,0,0,2,6.49c2.66-.39,6.87-1.06,9.38-1.55l-3-8.38Z"/><path fill="#37384f" d="M667.86,486.37l-.08-.19a6.82,6.82,0,0,0-9.19-3.41l-36.87,15.75c-1.7,4.49-.07,7.24,3.27,9.1,11.33-2.22,27.76-6.63,39.59-12.35A6.83,6.83,0,0,0,667.86,486.37Z"/><path fill="#2a80f7" d="M650.24,502.67l-4.77-1.12a2,2,0,0,0-.48-.06l-9.45,0a2.1,2.1,0,0,0-1.92,1.24l-.27.62a4.94,4.94,0,0,0,.22,4.46,2.12,2.12,0,0,0,1.82,1.06l9.18,0a2.07,2.07,0,0,0,.77-.15l5.19-2.06a2.1,2.1,0,0,0-.29-4Z"/><path fill="#f4acc8" d="M636.87,501.53a3.43,3.43,0,0,1-2,6.49c-2.66-.39-6.87-1.06-9.38-1.55l3-8.38Z"/><path fill="#37384f" d="M589.3,486.37l.08-.19a6.82,6.82,0,0,1,9.19-3.41l37.12,16.62c1.7,4.49.07,7.24-3.27,9.1a186.43,186.43,0,0,1-39.84-13.22A6.83,6.83,0,0,1,589.3,486.37Z"/><path fill="#2a80f7" d="M642.24,468.84l7.57-.42,1,2.45c-.84,2.75-2.84,6.37-5.59,6.37C641.47,477.24,640.44,473,642.24,468.84Z"/><polygon fill="#e4e7eb" points="630.17 476.48 643.55 466.1 650.05 444.79 636.67 455.17 630.17 476.48"/><polygon fill="#f0f3f7" points="617.33 472.47 634.21 477.74 640.71 456.43 623.83 451.16 622.82 452.46 617.33 472.47"/><polygon fill="#f0f3f7" points="629.21 476.74 643.93 472.74 652.87 453.92 650.43 451.43 635.71 455.43 629.21 476.74"/><polygon fill="#ffaa45" points="632.21 478.74 646.93 474.74 653.43 453.43 638.71 457.43 632.21 478.74"/><polygon fill="#fc5" points="615.33 473.47 632.21 478.74 638.71 457.43 621.83 452.16 615.33 473.47"/><path fill="#f4acc8" d="M651.34,470.33l1-4.94-3.3-5.07-.92,4.38.88,2.62-.51,2.42a1.44,1.44,0,1,0,2.81.59Z"/><path fill="#2a80f7" d="M598.31,472.67l-5.19-2.44s2-36.58,7.85-40c7.87-.51,10.2,2.58,10.24,10.31l-8.42,30.18Z"/><path fill="#2a80f7" d="M596.83,476A77,77,0,0,0,616,471.41l-.35-3.62-19.59-1.12-3,3.56C593.12,473.39,594.47,475.79,596.83,476Z"/><path fill="#f4acc8" d="M614.38,470v-5.06l5-4.15-.71,4.35-.15.26a9.06,9.06,0,0,0-1.26,4.6,1.44,1.44,0,0,1-2.87,0Z"/></g></g></svg>